<?xml version="1.0" encoding="UTF-8" standalone="no"?>
<!DOCTYPE svg PUBLIC "-//W3C//DTD SVG 1.1//EN" "http://www.w3.org/Graphics/SVG/1.1/DTD/svg11.dtd">
<svg width="100%" height="100%" viewBox="0 0 800 800" version="1.1" xmlns="http://www.w3.org/2000/svg" xmlns:xlink="http://www.w3.org/1999/xlink" xml:space="preserve" xmlns:serif="http://www.serif.com/" style="fill-rule:evenodd;clip-rule:evenodd;stroke-linecap:round;stroke-linejoin:round;stroke-miterlimit:1.5;">
    <g transform="matrix(0.993333,0,0,1,0.666667,0)">
        <rect x="100" y="-80" width="600" height="1040" style="fill:rgb(235,235,235);fill-opacity:0;stroke:black;stroke-opacity:0.44;stroke-width:3.01px;stroke-dasharray:15.05,9.03,0,0;"/>
    </g>
    <g transform="matrix(1.2002,0,0,1,-82.0803,0)">
        <rect x="100" y="-80" width="600" height="1040" style="fill:rgb(235,235,235);fill-opacity:0;stroke:black;stroke-opacity:0.44;stroke-width:2.72px;stroke-dasharray:13.58,8.15,0,0;"/>
    </g>
    <g transform="matrix(0.79,0,0,0.384615,84,229.972)">
        <rect x="100" y="-80" width="600" height="1040" style="fill:rgb(235,235,235);fill-opacity:0;stroke:black;stroke-opacity:0.44;stroke-width:4.83px;stroke-dasharray:24.14,14.49,0,0;"/>
    </g>
    <g transform="matrix(0.750264,0,0,0.750264,69.4071,-37.7124)">
        <g transform="matrix(279.209,0,0,279.209,240.7,560)">
            <path d="M0.032,-0L0.032,-0.075L0.11,-0.09L0.11,-0.621L0.032,-0.635L0.032,-0.711L0.361,-0.711C0.414,-0.711 0.46,-0.703 0.498,-0.686C0.535,-0.67 0.564,-0.646 0.584,-0.616C0.604,-0.585 0.614,-0.548 0.614,-0.505C0.614,-0.463 0.604,-0.427 0.584,-0.396C0.565,-0.365 0.537,-0.341 0.502,-0.324C0.466,-0.307 0.425,-0.298 0.377,-0.297L0.233,-0.296L0.233,-0.09L0.311,-0.075L0.311,-0L0.032,-0ZM0.495,-0L0.359,-0.327L0.474,-0.346L0.589,-0.088L0.645,-0.076L0.645,-0L0.495,-0ZM0.233,-0.392L0.355,-0.392C0.402,-0.392 0.436,-0.401 0.458,-0.42C0.48,-0.438 0.491,-0.466 0.491,-0.501C0.491,-0.536 0.48,-0.564 0.459,-0.585C0.438,-0.605 0.405,-0.616 0.361,-0.616L0.233,-0.616L0.233,-0.392Z" style="fill-rule:nonzero;"/>
        </g>
        <g transform="matrix(279.209,0,0,279.209,459.915,560)">
            <path d="M0.359,0.01C0.291,0.01 0.232,-0.005 0.183,-0.034C0.133,-0.064 0.096,-0.106 0.069,-0.158C0.043,-0.211 0.03,-0.273 0.03,-0.342L0.03,-0.361C0.03,-0.433 0.043,-0.495 0.069,-0.549C0.095,-0.603 0.132,-0.645 0.179,-0.676C0.226,-0.706 0.281,-0.721 0.344,-0.721C0.397,-0.721 0.444,-0.714 0.487,-0.701C0.529,-0.687 0.566,-0.668 0.596,-0.643L0.596,-0.491L0.502,-0.491L0.486,-0.59C0.472,-0.601 0.454,-0.609 0.432,-0.615C0.41,-0.621 0.384,-0.625 0.354,-0.625C0.314,-0.625 0.279,-0.614 0.249,-0.592C0.218,-0.57 0.195,-0.539 0.178,-0.5C0.161,-0.461 0.153,-0.415 0.153,-0.362L0.153,-0.342C0.153,-0.291 0.161,-0.245 0.177,-0.207C0.193,-0.169 0.217,-0.139 0.248,-0.118C0.279,-0.097 0.317,-0.086 0.361,-0.086C0.39,-0.086 0.415,-0.089 0.436,-0.094C0.458,-0.099 0.476,-0.105 0.492,-0.113L0.492,-0.253L0.375,-0.26L0.375,-0.348L0.615,-0.348L0.615,-0.065C0.588,-0.044 0.553,-0.026 0.511,-0.012C0.47,0.003 0.419,0.01 0.359,0.01Z" style="fill-rule:nonzero;"/>
        </g>
        <g transform="matrix(279.209,0,0,279.209,237.718,808.186)">
            <path d="M0.032,-0L0.032,-0.075L0.11,-0.09L0.11,-0.621L0.032,-0.635L0.032,-0.711L0.316,-0.711L0.316,-0.635L0.233,-0.621L0.233,-0.094L0.455,-0.094L0.463,-0.202L0.558,-0.202L0.558,-0L0.032,-0Z" style="fill-rule:nonzero;"/>
        </g>
        <g transform="matrix(279.209,0,0,279.209,459.913,808.186)">
            <path d="M0.032,-0L0.032,-0.075L0.11,-0.09L0.11,-0.621L0.032,-0.635L0.032,-0.711L0.344,-0.711C0.424,-0.711 0.486,-0.695 0.531,-0.662C0.576,-0.63 0.598,-0.582 0.598,-0.517C0.598,-0.485 0.589,-0.456 0.57,-0.43C0.552,-0.405 0.526,-0.386 0.493,-0.374C0.522,-0.367 0.546,-0.356 0.565,-0.34C0.585,-0.324 0.6,-0.304 0.61,-0.281C0.62,-0.257 0.625,-0.232 0.625,-0.204C0.625,-0.137 0.604,-0.087 0.56,-0.052C0.516,-0.017 0.455,-0 0.377,-0L0.032,-0ZM0.233,-0.095L0.377,-0.095C0.417,-0.095 0.448,-0.104 0.47,-0.123C0.492,-0.142 0.502,-0.169 0.502,-0.204C0.502,-0.229 0.498,-0.25 0.49,-0.268C0.482,-0.286 0.47,-0.299 0.453,-0.309C0.437,-0.318 0.415,-0.323 0.389,-0.323L0.233,-0.323L0.233,-0.095ZM0.233,-0.411L0.358,-0.411C0.394,-0.411 0.423,-0.42 0.444,-0.438C0.465,-0.455 0.475,-0.48 0.475,-0.511C0.475,-0.547 0.464,-0.573 0.442,-0.59C0.42,-0.607 0.387,-0.616 0.344,-0.616L0.233,-0.616L0.233,-0.411Z" style="fill-rule:nonzero;"/>
        </g>
    </g>
</svg>
